<?xml version="1.0" encoding="UTF-8"?>
<svg id="uuid-5a8e501a-65d2-4aa1-b89f-743ba3901a32" data-name="Layer 1" xmlns="http://www.w3.org/2000/svg" xmlns:xlink="http://www.w3.org/1999/xlink" viewBox="0 0 215.1689 226">
  <defs>
    <style>
      .uuid-62b7131f-447d-426b-9a12-2585f3aa7f90 {
        fill: url(#uuid-df4449b5-6e23-4b3d-b7a7-42cd190a1c58);
      }

      .uuid-62b7131f-447d-426b-9a12-2585f3aa7f90, .uuid-80a2dc76-95de-4db6-80af-02a75cb2c2e7, .uuid-0b4a834d-aedb-4280-96ce-3de4a407d2f7, .uuid-383c643f-17a0-4a4c-add0-06bbce0aeee6, .uuid-7c47bc17-a323-4392-a963-952e02bb9b86, .uuid-dec07192-fbcf-4dd2-883f-b171ab52e054, .uuid-aa3d92a6-7b41-43e0-895c-e35e6b3d42ae, .uuid-e8676c46-7a45-41a9-be98-03cf0d59bf51, .uuid-5117aeea-a92c-467d-90fc-474fcd44f6c7, .uuid-7e796847-5f7c-4a57-812d-ce090d762ec8 {
        stroke-width: 0px;
      }

      .uuid-80a2dc76-95de-4db6-80af-02a75cb2c2e7 {
        fill: url(#uuid-dd37a3eb-ba16-4c07-8640-14b0af0bcb7a);
      }

      .uuid-0b4a834d-aedb-4280-96ce-3de4a407d2f7 {
        fill: url(#uuid-ac2d8977-0315-46f3-889e-27c8dc245459);
      }

      .uuid-383c643f-17a0-4a4c-add0-06bbce0aeee6 {
        fill: url(#uuid-1136706f-c1f8-469c-9a26-da11202afa13);
      }

      .uuid-7c47bc17-a323-4392-a963-952e02bb9b86 {
        fill: url(#uuid-01f4ebc8-d7a4-410c-b24e-9a8d4f36176c);
      }

      .uuid-dec07192-fbcf-4dd2-883f-b171ab52e054 {
        fill: url(#uuid-765e3665-884a-4113-9463-fd93e24d5984);
      }

      .uuid-aa3d92a6-7b41-43e0-895c-e35e6b3d42ae {
        fill: url(#uuid-e3692ca8-d415-48e0-88d4-649c63b0acfe);
      }

      .uuid-e8676c46-7a45-41a9-be98-03cf0d59bf51 {
        fill: url(#uuid-4df123ea-2924-4456-b91e-2fd5f03d6cb2);
      }

      .uuid-5117aeea-a92c-467d-90fc-474fcd44f6c7 {
        fill: url(#uuid-d8611c08-1f85-474e-8668-433698174e54);
      }

      .uuid-7e796847-5f7c-4a57-812d-ce090d762ec8 {
        opacity: .1;
      }
    </style>
    <linearGradient id="uuid-ac2d8977-0315-46f3-889e-27c8dc245459" x1="40.9982" y1="86.4363" x2="175.7892" y2="164.258" gradientUnits="userSpaceOnUse">
      <stop offset=".4406" stop-color="#f6d09c"/>
      <stop offset="1" stop-color="#f5bc9b"/>
    </linearGradient>
    <linearGradient id="uuid-e3692ca8-d415-48e0-88d4-649c63b0acfe" x1="190.8031" y1="167.06" x2="90.5456" y2="16.5242" gradientUnits="userSpaceOnUse">
      <stop offset="0" stop-color="#57b8ff"/>
      <stop offset="1" stop-color="#1c80c6"/>
    </linearGradient>
    <linearGradient id="uuid-1136706f-c1f8-469c-9a26-da11202afa13" x1="23.1846" y1="168.2004" x2="123.1428" y2="18.5624" gradientUnits="userSpaceOnUse">
      <stop offset="0" stop-color="#51c2f1"/>
      <stop offset="1" stop-color="#1d90df"/>
    </linearGradient>
    <linearGradient id="uuid-01f4ebc8-d7a4-410c-b24e-9a8d4f36176c" x1="-53.6679" y1="146.8995" x2="19.4745" y2="159.0597" gradientTransform="translate(-85.4542 25.4562) rotate(99.9261) scale(1.0174 -1.2302) skewX(-1.0071)" gradientUnits="userSpaceOnUse">
      <stop offset="0" stop-color="#1ca6dd"/>
      <stop offset="1" stop-color="#52dbf2"/>
    </linearGradient>
    <linearGradient id="uuid-dd37a3eb-ba16-4c07-8640-14b0af0bcb7a" x1="-30.8058" y1="26.6652" x2="42.3367" y2="38.8254" gradientTransform="translate(150.665 25.4562) rotate(80.0739) scale(1.0174 1.2302) skewX(-1.0071)" xlink:href="#uuid-01f4ebc8-d7a4-410c-b24e-9a8d4f36176c"/>
    <linearGradient id="uuid-765e3665-884a-4113-9463-fd93e24d5984" x1="-93.6102" y1="62.3489" x2="26.998" y2="82.4004" gradientTransform="translate(-16.6011 -8.0265) rotate(155.7025) scale(.8499 -1.1432) skewX(-33.1375)" xlink:href="#uuid-01f4ebc8-d7a4-410c-b24e-9a8d4f36176c"/>
    <linearGradient id="uuid-df4449b5-6e23-4b3d-b7a7-42cd190a1c58" x1="46.9971" y1="1.7247" x2="167.6053" y2="21.7762" gradientTransform="translate(64.1961 -8.0265) rotate(24.2975) scale(.8499 1.1432) skewX(-33.1375)" xlink:href="#uuid-01f4ebc8-d7a4-410c-b24e-9a8d4f36176c"/>
    <linearGradient id="uuid-d8611c08-1f85-474e-8668-433698174e54" x1="-31.013" y1="24.1424" x2="89.5952" y2="44.1939" gradientTransform="translate(90.1058 -6.569) rotate(-179.3451) scale(1 -1)" xlink:href="#uuid-01f4ebc8-d7a4-410c-b24e-9a8d4f36176c"/>
    <linearGradient id="uuid-4df123ea-2924-4456-b91e-2fd5f03d6cb2" x1="94.5658" y1="17.2589" x2="215.174" y2="37.3104" gradientTransform="matrix(1,0,0,1,0,0)" xlink:href="#uuid-01f4ebc8-d7a4-410c-b24e-9a8d4f36176c"/>
  </defs>
  <path class="uuid-0b4a834d-aedb-4280-96ce-3de4a407d2f7" d="M107.4763,21.1643C60.8828,40.9446,15.1684,102.9228,38.0256,159.6262c22.8572,56.7034,69.4507,66.3738,69.4507,66.3738,0,0,46.5935-9.6704,69.4507-66.3738,22.8572-56.7034-22.8572-118.6816-69.4507-138.4619Z"/>
  <g>
    <path class="uuid-7e796847-5f7c-4a57-812d-ce090d762ec8" d="M176.927,159.6438c-.6329,1.5822-1.3011,3.1295-1.9692,4.6418-24.6154-7.209-72.9672-24.6154-86.2946-53.6617-11.7452-25.5298-5.4507-59.0068.4572-79.4377,5.9779-4.0438,12.1669-7.3845,18.356-10.0219,5.4857,2.3208,11.0066,5.2395,16.3518,8.6856,40.0879,25.6354,73.2484,79.754,53.0989,129.7939Z"/>
    <path class="uuid-aa3d92a6-7b41-43e0-895c-e35e6b3d42ae" d="M196.072,164.0218s-83.5167-14.5055-103.297-53.1869c-19.7803-38.6814,2.6374-98.0222,2.6374-98.0222,0,0,72.938,8.9753,96.264,67.6925,12.7473,32.088,4.3956,83.5167,4.3956,83.5167Z"/>
    <path class="uuid-7e796847-5f7c-4a57-812d-ce090d762ec8" d="M126.3246,111.4678c-13.0812,29.0111-61.0463,46.7341-85.6969,54.1539-.9143-1.934-1.7582-3.9385-2.6022-5.9779C15.1684,102.9228,60.8828,40.927,107.4763,21.1643c5.8725,2.4966,11.71,5.6263,17.4067,9.389,6.1539,20.2198,13.2922,54.6462,1.4417,80.9145Z"/>
    <path class="uuid-383c643f-17a0-4a4c-add0-06bbce0aeee6" d="M18.2453,164.9009s83.5167-14.5055,103.297-53.1869c19.7803-38.6814-2.6374-98.0222-2.6374-98.0222,0,0-72.938,8.9753-96.264,67.6925-12.7473,32.088-4.3956,83.5167-4.3956,83.5167Z"/>
  </g>
  <g>
    <path class="uuid-7e796847-5f7c-4a57-812d-ce090d762ec8" d="M102.323,2.2632s18.3462,20.6383,20.4221,32.0772c2.6391,14.5428-2.0566,33.7856-15.7296,43.5664,0,0-18.2855-9.6352-21.5784-21.7798-3.2929-12.1446-7.6553-24.4037,16.8859-53.8638Z"/>
    <path class="uuid-7e796847-5f7c-4a57-812d-ce090d762ec8" d="M113.0692,1.7846s-18.3462,20.6383-20.4221,32.0772c-2.6391,14.5428,2.0566,33.7856,15.7296,43.5664,0,0,18.2855-9.6352,21.5784-21.7798,3.2929-12.1446,7.6553-24.4037-16.8859-53.8638Z"/>
    <path class="uuid-7c47bc17-a323-4392-a963-952e02bb9b86" d="M102.6151.4659s18.3462,20.6383,20.4221,32.0772c2.6391,14.5428-2.0566,33.7856-15.7296,43.5664,0,0-18.2855-9.6352-21.5784-21.7798-3.2929-12.1446-7.6553-24.4037,16.8859-53.8638Z"/>
    <path class="uuid-80a2dc76-95de-4db6-80af-02a75cb2c2e7" d="M112.6725,0s-18.3462,20.6383-20.4221,32.0772c-2.6391,14.5428,2.0566,33.7856,15.7296,43.5664,0,0,18.2855-9.6352,21.5784-21.7798,3.2929-12.1446,7.6553-24.4037-16.8859-53.8638Z"/>
  </g>
  <g>
    <path class="uuid-7e796847-5f7c-4a57-812d-ce090d762ec8" d="M117.8795,11.0544s-2.8613,26.2773-12.1152,36.5384c-11.765,13.0455-35.0905,25.9532-57.6407,26.5127,0,0-7.8747-17.4365.9183-28.9098,8.793-11.4733,16.6849-23.6068,68.8375-34.1413Z"/>
    <path class="uuid-dec07192-fbcf-4dd2-883f-b171ab52e054" d="M117.8795,11.0544s-4.4972,26.0472-14.374,35.7102c-12.557,12.2851-36.6432,23.7105-59.1843,22.8602,0,0-6.77-17.8944,2.7225-28.7959,9.4925-10.9016,18.127-22.5184,70.8358-29.7745Z"/>
    <path class="uuid-7e796847-5f7c-4a57-812d-ce090d762ec8" d="M97.8059,10.901s3.3532,26.2191,12.7978,36.3049c12.0074,12.8227,35.5707,25.2911,58.1274,25.4279,0,0,7.5465-17.581-1.4599-28.8875-9.0065-11.3065-17.1243-23.29-69.4652-32.8454Z"/>
    <path class="uuid-62b7131f-447d-426b-9a12-2585f3aa7f90" d="M97.8059,10.901s4.4972,26.0472,14.374,35.7102c12.557,12.2851,36.6432,23.7105,59.1843,22.8602,0,0,6.77-17.8944-2.7225-28.7959-9.4925-10.9016-18.127-22.5184-70.8358-29.7745Z"/>
  </g>
  <g>
    <path class="uuid-7e796847-5f7c-4a57-812d-ce090d762ec8" d="M120.6631,19.1951s-2.1098,1.4417-5.5561,3.6219c-9.389,5.9429-28.6945,17.5123-41.7759,20.8528-9.1428,2.3912-19.6923,3.9737-30.2417,4.5012.7385-2.6022,2.0044-5.1342,3.9385-7.3496,8.0527-9.2484,15.5076-19.0241,49.8286-26.1977,5.9077.8791,12.3781,2.0746,19.4815,3.5867,1.4065.3166,2.8484.6329,4.3252.9847Z"/>
    <path class="uuid-5117aeea-a92c-467d-90fc-474fcd44f6c7" d="M120.6631,19.1924s-30.1505,18.8044-48.1754,22.7476c-22.916,5.0131-54.5674,5.0909-72.4877-3.9058,0,0,12.4979-16.5616,31.4581-21.6199,18.9602-5.0583,37.9305-10.9957,89.2051,2.7781Z"/>
    <path class="uuid-7e796847-5f7c-4a57-812d-ce090d762ec8" d="M172.7424,48.5577c-10.8309-.6329-21.6615-2.3912-31.0155-4.923-12.9407-3.4815-31.8242-15.1211-41.2132-21.275-3.5517-2.2856-5.7671-3.8329-5.7671-3.8329,1.5121-.3166,3.0241-.6329,4.466-.9143,6.8922-1.4419,13.1868-2.4968,18.9187-3.2703,34.9187,7.1736,42.3737,17.0197,50.4968,26.3385,2.0746,2.3912,3.3757,5.099,4.1142,7.8769Z"/>
    <path class="uuid-e8676c46-7a45-41a9-be98-03cf0d59bf51" d="M94.729,18.5269s29.9336,19.1479,47.9122,23.2968c22.8572,5.2747,54.5056,5.7143,72.5277-3.0769,0,0-12.3077-16.7033-31.2089-21.9781s-37.8023-11.4286-89.231,1.7582Z"/>
  </g>
</svg>